<svg xmlns="http://www.w3.org/2000/svg" viewBox="0 0 283.46 79.33" role="img" aria-labelledby="title">
  <title id="title">CTFtime</title>
  <path fill="#e3000b" d="M0 79.33h283.46V.19H0l33.23 40.1L0 79.33Z"/>
  <g fill="#fff">
    <path d="M61.92 57.92h18.55v-6.24H69.3V27.9h11.17v-6.88H61.92v36.9Zm24.4-29.81h5.28v29.81h7.38V28.11h5.27v-7.09H86.32v7.09Zm23.98 29.52h7.39V42.88h9.21v-5.73h-9.21V27.9h11.33v-6.88l-18.72-.29v36.9Zm72.49-32.29h5.54v32.58h4.43V25.34h5.53v-4.32h-15.5v4.32Zm20.52-4.32h4.43v36.9h-4.43v-36.9Zm20.85 13.5-5.27-13.5h-4.37v36.9h4.37V31.78l5.27 13.28 5.27-13.28v26.14h4.38v-36.9h-4.38l-5.27 13.5Zm20.61 19.08V41.58h7.38v-4.32h-7.38V25.34h12.11l1.16-4.32h-17.7v36.9h17.51l-1.16-4.32h-11.92Zm-109.23-32.58v36.9h39.7v-36.9h-39.7Zm34.29 31.87h-28.87V26.05h28.87v26.84Z"/>
    <path d="m153.91 39.38-6.11 6.1 4.03 3.57 9.41-9.4-16.08-16.08h-7.06l15.81 15.81Z"/>
  </g>
</svg>
